# xmcd CD database file
#
# Track frame offsets:
#	150
#	8845
#	34636
#	56603
#	74836
#	91261
#	114820
#	140227
#	163044
#	184419
#	206634
#
# Disc length: 3111 seconds
#
# Revision: 0
# Processed by: cddbd v1.5.2PL0 Copyright (c) Steve Scherf et al.
# Submitted via: CDex 1.70beta2
#
DISCID=9d0c250b
DTITLE=Brian Kellock - The Nine Mile Burn Sessions
DYEAR=2008
DGENRE=Jazz
TTITLE0=Intro
TTITLE1=Thingin'
TTITLE2=Dedicated To You
TTITLE3=Luiza
TTITLE4=Don't You Care You Know
TTITLE5=Nancy
TTITLE6=Blame It On My Youth
TTITLE7=They Say It's Wonderful
TTITLE8=I'll Never Be The Same
TTITLE9=The Masquerade (Is Over)
TTITLE10=Young and Foolish
EXTD=YEAR: 2008
EXTT0=
EXTT1=
EXTT2=
EXTT3=
EXTT4=
EXTT5=
EXTT6=
EXTT7=
EXTT8=
EXTT9=
EXTT10=
PLAYORDER=
